# xmcd
#
# Track frame offsets:
#	150
#	19301
#	43254
#	60030
#	81990
#	101237
#	118874
#	137209
#	154939
#	179835
#	196133
#	215004
#	229072
#	249060
#	271609
#
# Disc length: 3899 seconds
#
# Revision: 3
# Processed by: cddbd v1.4b41PL2 Copyright (c) Steve Scherf et al.
# Submitted via: audiograbber 1.80
#
DISCID=d40f390f
DTITLE=2Pac - Until The End Of Time
DYEAR=1900
DGENRE=
TTITLE0=Ballad Of A Dead Soulja
TTITLE1=F*** Friendz
TTITLE2=Lil' Homies
TTITLE3=Let Em Have It
TTITLE4=Good Life
TTITLE5=Letter 2 My Unborn 
TTITLE6=Breathin
TTITLE7=Happy Home
TTITLE8=All Out
TTITLE9=F***** Wit The wrong N****
TTITLE10=Thug N U Thug N Me (Remix)
TTITLE11=Everything They Owe
TTITLE12=Until The End Of Time
TTITLE13=M.O.B.
TTITLE14=World Wide Mob Figgaz
EXTD=
EXTT0=
EXTT1=
EXTT2=
EXTT3=
EXTT4=
EXTT5=
EXTT6=
EXTT7=
EXTT8=
EXTT9=
EXTT10=
EXTT11=
EXTT12=
EXTT13=
EXTT14=
PLAYORDER=
